<svg width="60" height="60" viewBox="0 0 60 60" fill="none" xmlns="http://www.w3.org/2000/svg">
<path d="M19.4676 29.9899C19.7987 29.973 20.7079 29.9828 21.3302 30.3847C21.4977 30.493 21.6432 30.6227 21.8571 30.642C21.9474 30.6502 22.5429 30.6595 22.5517 29.9474L19.1297 4.65628C19.0582 3.28469 20.1122 2.11377 21.4843 2.04228C22.856 1.97135 24.0269 3.02472 24.0983 4.3963C24.0983 4.3963 27.0818 21.7778 27.0975 21.843C27.0975 21.843 27.2312 22.4805 27.9077 22.477C28.3705 22.4746 28.7447 22.1018 28.7447 21.6394L30.2425 2.48781C30.2425 1.11396 31.3558 0 32.7297 0C34.1043 0 35.2188 1.11396 35.2188 2.48781L33.8786 21.448C33.9508 20.3306 35.092 19.9508 36.5396 19.999C37.4167 20.0281 38.882 20.4458 39.2048 22.0453L39.2061 22.8242C39.498 21.822 40.601 21.3805 41.8499 21.5346C42.4293 21.6062 43.4174 22.0971 43.4174 23.5699V36.3444C43.4174 36.5841 43.9623 47.1193 40.2123 49.9294V56.5285C40.2123 58.4456 39.0547 60 37.1371 60C37.1371 60 27.6833 59.9924 27.5669 59.9803C25.8166 59.9214 24.1239 58.4987 24.1239 56.7462V50.3002C22.34 49.8528 17.5655 40.7422 17.3213 38.3594L17.0032 31.8155C16.9311 30.4423 18.0956 30.0619 19.4676 29.9899Z" fill="#F2F2F2"/>
</svg>
